{"images":[{"uri":"baseColor_2.jpg","name":"baseColor_2.jpg"},{"uri":"baseColor_1.jpg","name":"baseColor_1.jpg"},{"uri":"baseColor_3.jpg","name":"baseColor_3.jpg"},{"uri":"baseColor_6.jpg","name":"baseColor_6.jpg"},{"uri":"baseColor_7.jpg","name":"baseColor_7.jpg"},{"uri":"baseColor_4.jpg","name":"baseColor_4.jpg"},{"uri":"baseColor_5.jpg","name":"baseColor_5.jpg"},{"uri":"baseColor_8.jpg","name":"baseColor_8.jpg"},{"uri":"baseColor_9.jpg","name":"baseColor_9.jpg"}],"accessors":[{"componentType":5126,"max":[1.0243806838989258,1,1.0126088857650757],"bufferView":0,"count":606,"type":"VEC3","min":[-1.000557780265808,-1.0219578742980957,-1.0014760494232178],"byteOffset":0},{"componentType":5126,"bufferView":0,"count":606,"type":"VEC3","byteOffset":12},{"componentType":5126,"bufferView":0,"count":606,"type":"VEC2","byteOffset":24},{"componentType":5125,"bufferView":1,"count":2292,"type":"SCALAR","byteOffset":0},{"componentType":5125,"bufferView":1,"count":6774,"type":"SCALAR","byteOffset":9168},{"componentType":5125,"bufferView":1,"count":6774,"type":"SCALAR","byteOffset":36264},{"componentType":5125,"bufferView":1,"count":858,"type":"SCALAR","byteOffset":63360},{"componentType":5125,"bufferView":1,"count":6144,"type":"SCALAR","byteOffset":66792},{"componentType":5125,"bufferView":1,"count":52104,"type":"SCALAR","byteOffset":91368},{"componentType":5125,"bufferView":1,"count":7056,"type":"SCALAR","byteOffset":299784},{"componentType":5125,"bufferView":1,"count":86400,"type":"SCALAR","byteOffset":328008},{"componentType":5125,"bufferView":1,"count":14400,"type":"SCALAR","byteOffset":673608},{"componentType":5125,"bufferView":1,"count":744,"type":"SCALAR","byteOffset":731208},{"componentType":5125,"bufferView":1,"count":2880,"type":"SCALAR","byteOffset":734184},{"componentType":5125,"bufferView":1,"count":2880,"type":"SCALAR","byteOffset":745704},{"componentType":5125,"bufferView":1,"count":253440,"type":"SCALAR","byteOffset":757224},{"componentType":5125,"bufferView":1,"count":23748,"type":"SCALAR","byteOffset":1770984},{"componentType":5126,"max":[1.0195918083190918,0.2013687640428543,1.0195918083190918],"bufferView":2,"count":1201,"type":"VEC3","min":[-1.0195918083190918,-0.07201611995697021,-1.0195918083190918],"byteOffset":0},{"componentType":5126,"bufferView":2,"count":1201,"type":"VEC3","byteOffset":12},{"componentType":5126,"bufferView":2,"count":1201,"type":"VEC2","byteOffset":24},{"componentType":5126,"max":[1.0195918083190918,0.2013687640428543,1.0195918083190918],"bufferView":3,"count":1201,"type":"VEC3","min":[-1.0195918083190918,-0.07201611995697021,-1.0195918083190918],"byteOffset":0},{"componentType":5126,"bufferView":3,"count":1201,"type":"VEC3","byteOffset":12},{"componentType":5126,"bufferView":3,"count":1201,"type":"VEC2","byteOffset":24},{"componentType":5126,"max":[1,1,1],"bufferView":4,"count":266,"type":"VEC3","min":[-1,0.6835174560546875,-1],"byteOffset":0},{"componentType":5126,"bufferView":4,"count":266,"type":"VEC3","byteOffset":12},{"componentType":5126,"bufferView":4,"count":266,"type":"VEC2","byteOffset":24},{"componentType":5126,"max":[1.2549269199371338,0.11451629549264908,1.2494124174118042],"bufferView":5,"count":1538,"type":"VEC3","min":[-1.2438669204711914,-0.04786659777164459,-1.2494124174118042],"byteOffset":0},{"componentType":5126,"bufferView":5,"count":1538,"type":"VEC3","byteOffset":12},{"componentType":5126,"bufferView":5,"count":1538,"type":"VEC2","byteOffset":24},{"componentType":5126,"max":[0.960972249507904,1.2869311571121216,0.960027813911438],"bufferView":6,"count":9068,"type":"VEC3","min":[-2.452934741973877,-1.4409621953964233,-2.402611494064331],"byteOffset":0},{"componentType":5126,"bufferView":6,"count":9068,"type":"VEC3","byteOffset":12},{"componentType":5126,"bufferView":6,"count":9068,"type":"VEC2","byteOffset":24},{"componentType":5126,"max":[4.416985511779785,1.17755925655365,1.5923272371292114],"bufferView":7,"count":4617,"type":"VEC3","min":[-1.8264400959014893,-2.3075854778289795,-12.099717140197754],"byteOffset":0},{"componentType":5126,"bufferView":7,"count":4617,"type":"VEC3","byteOffset":12},{"componentType":5126,"bufferView":7,"count":4617,"type":"VEC2","byteOffset":24},{"componentType":5126,"max":[2.5053112506866455,62.68651580810547,16.044301986694336],"bufferView":8,"count":18444,"type":"VEC3","min":[-11.2315092086792,-25.373123168945312,-2.9244279861450195],"byteOffset":0},{"componentType":5126,"bufferView":8,"count":18444,"type":"VEC3","byteOffset":12},{"componentType":5126,"bufferView":8,"count":18444,"type":"VEC2","byteOffset":24},{"componentType":5126,"max":[4.329622268676758,57.10713195800781,0.9999993443489075],"bufferView":9,"count":2795,"type":"VEC3","min":[-23.731456756591797,-10.670369148254395,-48.689414978027344],"byteOffset":0},{"componentType":5126,"bufferView":9,"count":2795,"type":"VEC3","byteOffset":12},{"componentType":5126,"bufferView":9,"count":2795,"type":"VEC2","byteOffset":24},{"componentType":5126,"max":[1.0000004768371582,1,7.575949668884277],"bufferView":10,"count":384,"type":"VEC3","min":[-1,-1.0446281433105469,-12.629826545715332],"byteOffset":0},{"componentType":5126,"bufferView":10,"count":384,"type":"VEC3","byteOffset":12},{"componentType":5126,"bufferView":10,"count":384,"type":"VEC2","byteOffset":24},{"componentType":5126,"max":[0.9999997019767761,1,0.9999993443489075],"bufferView":11,"count":1984,"type":"VEC3","min":[-0.9999990463256836,-1,-1],"byteOffset":0},{"componentType":5126,"bufferView":11,"count":1984,"type":"VEC3","byteOffset":12},{"componentType":5126,"bufferView":11,"count":1984,"type":"VEC2","byteOffset":24},{"componentType":5126,"max":[0.9999997019767761,1,0.9999993443489075],"bufferView":12,"count":1984,"type":"VEC3","min":[-0.9999990463256836,-1,-1],"byteOffset":0},{"componentType":5126,"bufferView":12,"count":1984,"type":"VEC3","byteOffset":12},{"componentType":5126,"bufferView":12,"count":1984,"type":"VEC2","byteOffset":24},{"componentType":5126,"max":[3.58259916305542,1.1875886917114258,3.7927231788635254],"bufferView":13,"count":45694,"type":"VEC3","min":[-15.438419342041016,-1,-14.98134994506836],"byteOffset":0},{"componentType":5126,"bufferView":13,"count":45694,"type":"VEC3","byteOffset":12},{"componentType":5126,"bufferView":13,"count":45694,"type":"VEC2","byteOffset":24},{"componentType":5126,"max":[1.1557731628417969,1.2074742317199707,-0.01286457572132349],"bufferView":14,"count":4184,"type":"VEC3","min":[-1.0107944011688232,-1.1030118465423584,-1.5690386295318604],"byteOffset":0},{"componentType":5126,"bufferView":14,"count":4184,"type":"VEC3","byteOffset":12},{"componentType":5126,"bufferView":14,"count":4184,"type":"VEC2","byteOffset":24}],"textures":[{"source":0,"sampler":0},{"source":1,"sampler":0},{"source":2,"sampler":0},{"source":3,"sampler":0},{"source":4,"sampler":0},{"source":5,"sampler":0},{"source":6,"sampler":0},{"source":7,"sampler":0},{"source":8,"sampler":0}],"buffers":[{"byteLength":4872888,"uri":"a42a121b6a7f48e68862c1dfaa23e26e.bin"}],"bufferViews":[{"byteLength":19392,"byteStride":32,"target":34962,"byteOffset":0,"buffer":0},{"byteLength":1865976,"target":34963,"byteOffset":19392,"buffer":0},{"byteLength":38432,"byteStride":32,"target":34962,"byteOffset":1885368,"buffer":0},{"byteLength":38432,"byteStride":32,"target":34962,"byteOffset":1923800,"buffer":0},{"byteLength":8512,"byteStride":32,"target":34962,"byteOffset":1962232,"buffer":0},{"byteLength":49216,"byteStride":32,"target":34962,"byteOffset":1970744,"buffer":0},{"byteLength":290176,"byteStride":32,"target":34962,"byteOffset":2019960,"buffer":0},{"byteLength":147744,"byteStride":32,"target":34962,"byteOffset":2310136,"buffer":0},{"byteLength":590208,"byteStride":32,"target":34962,"byteOffset":2457880,"buffer":0},{"byteLength":89440,"byteStride":32,"target":34962,"byteOffset":3048088,"buffer":0},{"byteLength":12288,"byteStride":32,"target":34962,"byteOffset":3137528,"buffer":0},{"byteLength":63488,"byteStride":32,"target":34962,"byteOffset":3149816,"buffer":0},{"byteLength":63488,"byteStride":32,"target":34962,"byteOffset":3213304,"buffer":0},{"byteLength":1462208,"byteStride":32,"target":34962,"byteOffset":3276792,"buffer":0},{"byteLength":133888,"byteStride":32,"target":34962,"byteOffset":4739000,"buffer":0}],"samplers":[{"magFilter":9729,"minFilter":9987}],"scene":0,"nodes":[{"rotation":[-0.7071067811865475,0,0,0.7071067811865476],"children":[1],"name":"Sketchfab_model","translation":[-0.006965367061923189,-0.016216179808225206,0]},{"children":[2],"name":"root"},{"rotation":[0.7071067811865475,0,0,0.7071067811865476],"children":[3,5,7,9,11,13,15,17,19,21,23,25,27,29],"name":"GLTF_SceneRootNode"},{"scale":[1.0449004173278809,0.6112799644470215,1.0449004173278809],"children":[4],"name":"Cylinder_2","translation":[0,0.6409185528755188,-0.0010932683944702148]},{"name":"Object_4","mesh":0},{"scale":[1.0320407152175903,0.6037569046020508,1.0320407152175903],"children":[6],"name":"Cylinder.001_3","translation":[0,0.6299394965171814,0]},{"name":"Object_6","mesh":1},{"scale":[1.0320041179656982,0.6037355065345764,1.0320041179656982],"children":[8],"name":"Cylinder.002_4","translation":[0,0.48284104466438293,-0.0010932683944702148]},{"name":"Object_8","mesh":2},{"scale":[1.0646495819091797,0.6228334903717041,1.0646495819091797],"children":[10],"name":"Cylinder.003_5","translation":[0,0.6308342814445496,-0.0010932683944702148]},{"name":"Object_10","mesh":3},{"scale":[1.2595601081848145,1.2595601081848145,1.2595601081848145],"children":[12],"name":"Circle_7","translation":[0,0.11187790334224701,0]},{"name":"Object_12","mesh":4},{"rotation":[-0.06177349476626773,0.8566176576264002,-0.10556997726059501,0.5012436572049753],"scale":[0.2782340347766877,0.2534535825252533,0.27823400497436523],"children":[14],"name":"Sphere.001_8","translation":[0.1211390271782875,1.3867664337158203,-0.2632391154766083]},{"name":"Object_14","mesh":5},{"rotation":[0.0649023427008038,0.30543243286003213,-0.31876953680971676,0.8949216151547955],"scale":[0.13447055220603946,0.10333722084760665,0.10333722829818726],"children":[16],"name":"Plane.002_9","translation":[0.38217419385910034,1.3685685396194458,0.4688546061515808]},{"name":"Object_16","mesh":6},{"rotation":[0.21936105302352238,-0.7365263141588808,-0.33928680591056476,0.5424888757412006],"scale":[0.10491470992565155,0.012612796388566494,0.07001870870590209],"children":[18],"name":"Sphere.010_10","translation":[1.1470763683319092,0.3069150149822235,0.5166192650794983]},{"name":"Object_18","mesh":7},{"rotation":[0.24728002594815332,0.09379647463763373,-0.05467814085583817,0.9628422046343739],"scale":[0.029532302170991898,0.014586929231882094,0.029532300308346752],"children":[20],"name":"Sphere.011_11","translation":[1.1301873922348022,0.24132376909255981,0.5881319642066956]},{"name":"Object_20","mesh":8},{"rotation":[-0.02261243783348818,0,0,0.9997443061379379],"scale":[0.04143805801868439,1.1026867628097532,0.04143805801868438],"children":[22],"name":"Cylinder.005_12","translation":[-0.19405639171600342,1.4799420833587646,-0.3526310324668884]},{"name":"Object_22","mesh":9},{"rotation":[0,-0.3390991079295515,0,0.9407506550629567],"scale":[0.13286300003528595,0.036414261907339096,0.11275992542505266],"children":[24],"name":"Sphere_13","translation":[0.7771339416503906,0.0890696793794632,-0.7953693270683289]},{"name":"Object_24","mesh":10},{"rotation":[0,-0.3390991079295515,0,0.9407506550629569],"scale":[0.052019901573657996,0.01425729040056467,0.044148936867713935],"children":[26],"name":"Sphere.012_14","translation":[0.9074936509132385,0.0890696793794632,-0.6138672828674316]},{"name":"Object_26","mesh":11},{"scale":[0.1352824568748474,0.1352824568748474,0.1352824568748474],"children":[28],"name":"Sphere.016_15","translation":[0.7899969220161438,0.2220735400915146,0.7786178588867188]},{"name":"Object_28","mesh":12},{"rotation":[-0.7071067811865475,0,0,0.7071067811865476],"scale":[0.7952482104301453,0.7952482104301453,0.7952482104301453],"children":[30],"name":"NurbsPath.001_16","translation":[0,1.3187251091003418,0.10067474842071533]},{"name":"Object_30","mesh":13}],"materials":[{"pbrMetallicRoughness":{"roughnessFactor":0.6,"baseColorFactor":[1,1,1,1],"metallicFactor":0},"extensions":{"KHR_materials_specular":{"specularFactor":0.3}},"name":"material_0","doubleSided":true},{"pbrMetallicRoughness":{"roughnessFactor":0.5,"baseColorFactor":[1,1,1,1],"baseColorTexture":{"index":1},"metallicFactor":0},"extensions":{"KHR_materials_specular":{"specularFactor":0.3}},"name":"Material.003","doubleSided":true},{"pbrMetallicRoughness":{"roughnessFactor":0.5,"baseColorFactor":[1,1,1,1],"baseColorTexture":{"index":0},"metallicFactor":0},"extensions":{"KHR_materials_specular":{"specularFactor":0.3}},"name":"Material.004","doubleSided":true},{"pbrMetallicRoughness":{"roughnessFactor":0.5,"baseColorFactor":[0.7665614189803083,0.1540682558592004,0.1540682558592004,1],"metallicFactor":0},"extensions":{"KHR_materials_specular":{"specularFactor":0.3}},"name":"Material.005","doubleSided":true},{"pbrMetallicRoughness":{"roughnessFactor":0.5,"baseColorFactor":[1,1,1,1],"baseColorTexture":{"index":2},"metallicFactor":0},"extensions":{"KHR_materials_specular":{"specularFactor":0.3}},"name":"Material.002","doubleSided":true},{"pbrMetallicRoughness":{"roughnessFactor":0.1116163401640844,"baseColorFactor":[1,0.783914465286133,0.783914465286133,1],"metallicFactor":0},"extensions":{"KHR_materials_specular":{"specularFactor":0.3}},"name":"Material.011","doubleSided":true},{"pbrMetallicRoughness":{"roughnessFactor":0.814286,"baseColorFactor":[1,1,1,1],"baseColorTexture":{"index":5},"metallicFactor":0},"extensions":{"KHR_materials_specular":{"specularFactor":0.3}},"name":"Material.001","doubleSided":true},{"pbrMetallicRoughness":{"roughnessFactor":0.5,"baseColorFactor":[1,1,1,1],"baseColorTexture":{"index":6},"metallicFactor":0},"extensions":{"KHR_materials_specular":{"specularFactor":0.3}},"name":"Material.007","doubleSided":true},{"pbrMetallicRoughness":{"roughnessFactor":0.5,"baseColorFactor":[1,1,1,1],"baseColorTexture":{"index":3},"metallicFactor":0},"extensions":{"KHR_materials_specular":{"specularFactor":0.3}},"name":"Material.008","doubleSided":true},{"pbrMetallicRoughness":{"roughnessFactor":0.5,"baseColorFactor":[1,1,1,1],"baseColorTexture":{"index":4},"metallicFactor":0},"extensions":{"KHR_materials_specular":{"specularFactor":0.3}},"name":"Material.009","doubleSided":true},{"pbrMetallicRoughness":{"roughnessFactor":0.5,"baseColorFactor":[1,1,1,1],"baseColorTexture":{"index":7},"metallicFactor":0},"extensions":{"KHR_materials_specular":{"specularFactor":0.3}},"name":"Material.012","doubleSided":true},{"pbrMetallicRoughness":{"roughnessFactor":0.928571,"baseColorFactor":[0.8193024440314856,0.09027847930013498,0.09027847930013498,1],"metallicFactor":0},"extensions":{"KHR_materials_specular":{"specularFactor":0.3}},"name":"Material.006","doubleSided":true},{"pbrMetallicRoughness":{"roughnessFactor":0.5,"baseColorFactor":[1,1,1,1],"baseColorTexture":{"index":8},"metallicFactor":0},"extensions":{"KHR_materials_specular":{"specularFactor":0.3}},"name":"Material.010","doubleSided":true}],"scenes":[{"nodes":[0],"name":"Sketchfab_Scene"}],"asset":{"generator":"CG美术之家","source":"https://www.cgmszj.com/model/118600.html","version":"2.0"},"meshes":[{"primitives":[{"mode":4,"indices":3,"material":1,"attributes":{"POSITION":0,"TEXCOORD_0":2,"NORMAL":1}}],"name":"Object_0"},{"primitives":[{"mode":4,"indices":4,"material":2,"attributes":{"POSITION":17,"TEXCOORD_0":19,"NORMAL":18}}],"name":"Object_1"},{"primitives":[{"mode":4,"indices":5,"material":3,"attributes":{"POSITION":20,"TEXCOORD_0":22,"NORMAL":21}}],"name":"Object_2"},{"primitives":[{"mode":4,"indices":6,"material":4,"attributes":{"POSITION":23,"TEXCOORD_0":25,"NORMAL":24}}],"name":"Object_3"},{"primitives":[{"mode":4,"indices":7,"material":5,"attributes":{"POSITION":26,"TEXCOORD_0":28,"NORMAL":27}}],"name":"Object_4"},{"primitives":[{"mode":4,"indices":8,"material":6,"attributes":{"POSITION":29,"TEXCOORD_0":31,"NORMAL":30}}],"name":"Object_5"},{"primitives":[{"mode":4,"indices":9,"material":7,"attributes":{"POSITION":32,"TEXCOORD_0":34,"NORMAL":33}}],"name":"Object_6"},{"primitives":[{"mode":4,"indices":10,"material":8,"attributes":{"POSITION":35,"TEXCOORD_0":37,"NORMAL":36}}],"name":"Object_7"},{"primitives":[{"mode":4,"indices":11,"material":9,"attributes":{"POSITION":38,"TEXCOORD_0":40,"NORMAL":39}}],"name":"Object_8"},{"primitives":[{"mode":4,"indices":12,"material":10,"attributes":{"POSITION":41,"TEXCOORD_0":43,"NORMAL":42}}],"name":"Object_9"},{"primitives":[{"mode":4,"indices":13,"material":11,"attributes":{"POSITION":44,"TEXCOORD_0":46,"NORMAL":45}}],"name":"Object_10"},{"primitives":[{"mode":4,"indices":14,"material":0,"attributes":{"POSITION":47,"TEXCOORD_0":49,"NORMAL":48}}],"name":"Object_11"},{"primitives":[{"mode":4,"indices":15,"material":12,"attributes":{"POSITION":50,"TEXCOORD_0":52,"NORMAL":51}}],"name":"Object_12"},{"primitives":[{"mode":4,"indices":16,"material":11,"attributes":{"POSITION":53,"TEXCOORD_0":55,"NORMAL":54}}],"name":"Object_13"}]}