{"images":[{"uri":"baseColor.jpg","name":"baseColor.jpg"}],"accessors":[{"componentType":5126,"max":[0.03318891301751137,0.03963139280676842,0.10869023203849792],"bufferView":0,"count":5390,"type":"VEC3","min":[-0.03873823955655098,-0.033188916742801666,0.00006634792953263968],"byteOffset":0},{"componentType":5126,"bufferView":0,"count":5390,"type":"VEC3","byteOffset":12},{"componentType":5126,"bufferView":0,"count":5390,"type":"VEC2","byteOffset":24},{"componentType":5125,"bufferView":1,"count":17466,"type":"SCALAR","byteOffset":0}],"extensionsUsed":["KHR_materials_unlit"],"textures":[{"source":0,"sampler":0}],"buffers":[{"byteLength":242344,"uri":"5e772f1caf214b9ba7b59261ea7c2abd.bin"}],"bufferViews":[{"byteLength":172480,"byteStride":32,"target":34962,"byteOffset":0,"buffer":0},{"byteLength":69864,"target":34963,"byteOffset":172480,"buffer":0}],"samplers":[{"magFilter":9729,"minFilter":9987}],"scene":0,"nodes":[{"rotation":[-0.7071067811865475,0,0,0.7071067811865476],"scale":[5.330485820770264,5.330485820770264,5.330485820770264],"children":[1],"name":"Sketchfab_model","translation":[0.014790302884998358,-0.00035365005379306023,0.017170789095338812]},{"rotation":[0.7071067811865475,0,0,0.7071067811865476],"scale":[0.009999999776482582,0.009999999776482582,0.009999999776482582],"children":[2],"name":"62281d799953474d9220f9ea3f9b2140.fbx"},{"children":[3],"name":"RootNode"},{"rotation":[-0.7071068387877038,0,0,0.7071067235853866],"scale":[100,100.00000000000001,100.00000000000001],"children":[4],"name":"Circle.002"},{"name":"Circle.002_Material.001_0","mesh":0}],"materials":[{"pbrMetallicRoughness":{"baseColorFactor":[1,1,1,1],"baseColorTexture":{"index":0}},"extensions":{"KHR_materials_unlit":{}},"name":"Material.001","doubleSided":true,"alphaMode":"BLEND"}],"scenes":[{"nodes":[0],"name":"Sketchfab_Scene"}],"asset":{"generator":"CG美术之家","source":"https://www.cgmszj.com/model/119416.html","version":"2.0"},"meshes":[{"primitives":[{"mode":4,"indices":3,"material":0,"attributes":{"POSITION":0,"TEXCOORD_0":2,"NORMAL":1}}],"name":"Circle.002_Material.001_0"}]}